<svg width="32" height="32" viewBox="0 0 32 32" fill="none" xmlns="http://www.w3.org/2000/svg">
<g clip-path="url(#clip0)">
<path d="M4.5 2C4.5 1.17157 5.17157 0.5 6 0.5H19.7929L27.5 8.20711V30C27.5 30.8284 26.8284 31.5 26 31.5H6C5.17157 31.5 4.5 30.8284 4.5 30V2Z" fill="#F9F9FB" stroke="#607D8B"/>
<path d="M22 8H28L20 0V6C20 7.10457 20.8954 8 22 8Z" fill="#607D8B" stroke="#607D8B"/>
</g>
<rect x="0.5" y="12.5" width="31" height="13" rx="1.5" fill="#607D8B"/>
<path d="M7.60332 23H8.80332V20.62H10.0033C11.7933 20.62 12.7033 19.71 12.7033 18.31C12.7033 16.82 11.8833 16 10.0033 16H7.60332V23ZM10.0033 17.06C10.9933 17.06 11.4433 17.51 11.4433 18.31C11.4433 19.07 10.9533 19.56 10.0033 19.56H8.80332V17.06H10.0033ZM13.5994 23H15.8994C18.0594 23 19.2494 21.81 19.2494 19.78V19.22C19.2494 17.17 18.0794 16 15.8994 16H13.5994V23ZM15.8994 17.06C17.2594 17.06 17.9894 17.78 17.9894 19.22V19.78C17.9894 21.24 17.2794 21.94 15.8994 21.94H14.7994V17.06H15.8994ZM20.3963 23H21.5963V20.03H24.2963V18.97H21.5963V17.06H24.8963V16H20.3963V23Z" fill="#F9F9FB"/>
<rect x="0.5" y="12.5" width="31" height="13" rx="1.5" stroke="#607D8B"/>
<defs>
<clipPath id="clip0">
<rect width="24" height="32" fill="white" transform="translate(4)"/>
</clipPath>
</defs>
</svg>
