<svg width="212" height="46" viewBox="0 0 212 46" fill="none" xmlns="http://www.w3.org/2000/svg">
  <g clip-path="url(#clip0)">
    <path d="M66.227 25.4662H61.4453V7.00195H66.227V25.4662ZM66.3018 4.78425H61.52V0H66.3018V4.78425Z" fill="black"/>
    <path d="M87.322 25.4662H82.5403V14.0786C82.5403 11.8609 81.5192 10.7646 79.4521 10.7646C78.2815 10.7646 77.3601 11.0885 76.6378 11.7613C75.9405 12.4341 75.5669 13.3062 75.5669 14.4026V25.4911H70.7852V7.00194H75.5669V9.66816C76.8869 7.67473 78.7298 6.70293 81.0958 6.70293C83.0633 6.70293 84.5825 7.25112 85.6534 8.37243C86.7243 9.49374 87.2722 11.0636 87.2722 13.0819V25.4662H87.322Z" fill="black"/>
    <path d="M107.319 20.0091C107.319 21.878 106.622 23.2983 105.227 24.295C103.832 25.2917 101.84 25.7901 99.2499 25.7901C93.5716 25.7901 90.6577 23.7468 90.5332 19.6354H95.2153C95.4146 20.5822 95.813 21.2052 96.3859 21.5291C96.9587 21.8531 97.8303 22.0275 98.976 22.0275C101.342 22.0275 102.537 21.5042 102.537 20.4577C102.537 19.9593 101.989 19.5357 100.919 19.1868L95.2153 17.4177C93.5965 16.9193 92.5256 16.3462 91.9777 15.6734C91.4298 15.0006 91.1807 14.0786 91.1807 12.8577C91.1807 10.9639 91.8532 9.46882 93.2229 8.37243C94.5678 7.27604 96.4357 6.70293 98.7767 6.70293C101.267 6.70293 103.21 7.25112 104.629 8.37243C106.049 9.46882 106.771 11.0137 106.821 12.9823H102.214C102.189 11.3128 101.043 10.4905 98.7518 10.4905C97.9051 10.4905 97.2326 10.64 96.7345 10.9639C96.2364 11.2629 95.9874 11.6865 95.9874 12.2098C95.9874 12.6085 96.1119 12.8826 96.3361 13.0819C96.5602 13.2813 97.0085 13.4557 97.6809 13.655L103.733 15.3993C106.149 16.097 107.344 17.5672 107.344 19.8098V20.0091H107.319Z" fill="black"/>
    <path d="M128.166 16.2465C128.166 19.0373 127.444 21.3048 125.974 23.0989C124.505 24.893 122.662 25.7901 120.445 25.7901C118.079 25.7901 116.361 24.8681 115.315 23.0242V32.9415H110.533V7.02684H115.315V9.76782C116.461 7.74947 118.154 6.72783 120.445 6.72783C122.811 6.72783 124.704 7.62488 126.074 9.39405C127.469 11.1383 128.166 13.4308 128.166 16.2465ZM123.384 16.2963C123.384 14.5521 123.011 13.2065 122.288 12.1849C121.566 11.1881 120.57 10.6898 119.35 10.6898C118.129 10.6898 117.158 11.1881 116.436 12.1849C115.689 13.1816 115.315 14.5272 115.315 16.2465C115.315 17.9658 115.689 19.3114 116.436 20.3081C117.183 21.3048 118.154 21.8032 119.35 21.8032C120.545 21.8032 121.491 21.3048 122.263 20.3081C123.011 19.2865 123.384 17.9658 123.384 16.2963Z" fill="black"/>
    <path d="M147.393 16.9193L147.368 17.4924H134.99C135.065 19.2118 135.414 20.4078 136.061 21.0806C136.709 21.7534 137.63 22.1022 138.826 22.1022C140.868 22.1022 142.088 21.4793 142.487 20.2583H147.194C146.671 22.0275 145.65 23.398 144.105 24.3449C142.586 25.2917 140.743 25.7652 138.626 25.7652C135.986 25.7652 133.919 24.9429 132.425 23.3232C130.931 21.7035 130.184 19.4111 130.184 16.4708C130.184 13.3809 130.931 10.9888 132.45 9.26948C133.969 7.55014 136.061 6.67801 138.726 6.67801C141.441 6.67801 143.558 7.57506 145.077 9.39407C146.621 11.2131 147.393 13.7298 147.393 16.9193ZM142.387 14.3278C142.262 13.0321 141.889 12.0354 141.216 11.3626C140.544 10.6898 139.697 10.3659 138.651 10.3659C136.559 10.3659 135.339 11.6865 135.04 14.3278H142.387Z" fill="black"/>
    <path d="M166.295 19.0622C166.071 21.0557 165.224 22.6504 163.755 23.8963C162.285 25.1422 160.467 25.7652 158.251 25.7652C155.486 25.7652 153.37 24.9678 151.85 23.3481C150.356 21.7285 149.584 19.4111 149.584 16.3711C149.584 13.2564 150.331 10.8642 151.85 9.19473C153.37 7.52522 155.511 6.70293 158.301 6.70293C160.592 6.70293 162.46 7.35079 163.879 8.62161C165.299 9.89243 166.096 11.6616 166.245 13.9291H161.663C161.389 12.7331 160.99 11.8609 160.492 11.3377C159.969 10.8144 159.222 10.5652 158.251 10.5652C155.661 10.5652 154.366 12.5088 154.366 16.3711C154.366 18.1403 154.714 19.5108 155.387 20.4826C156.059 21.4544 157.031 21.9278 158.251 21.9278C159.172 21.9278 159.87 21.7036 160.393 21.255C160.916 20.8065 161.339 20.0839 161.663 19.1121H166.295V19.0622Z" fill="black"/>
    <path d="M177.752 25.4662C177.627 25.4662 177.229 25.4911 176.581 25.5409C175.934 25.5908 175.411 25.6157 174.988 25.6157C173.394 25.6157 172.223 25.2917 171.451 24.6439C170.679 23.996 170.305 22.9494 170.305 21.5042V10.5652H167.939V7.37571H170.305V2.41704H175.087V7.37571H177.752V10.5652H175.087V20.2085C175.087 21.0308 175.187 21.579 175.386 21.8281C175.585 22.1022 176.009 22.2268 176.656 22.2268C176.905 22.2268 177.279 22.2019 177.752 22.1272V25.4662Z" fill="black"/>
    <path d="M197.949 16.3711C197.949 19.3114 197.127 21.6039 195.508 23.2734C193.89 24.9429 191.648 25.7652 188.834 25.7652C185.995 25.7652 183.753 24.9429 182.135 23.2734C180.516 21.6039 179.719 19.2616 179.719 16.2216C179.719 13.2065 180.516 10.8642 182.135 9.19472C183.753 7.52522 185.97 6.67801 188.809 6.67801C191.723 6.67801 193.989 7.52522 195.583 9.19472C197.152 10.8891 197.949 13.2813 197.949 16.3711ZM193.167 16.2963C193.167 14.5023 192.769 13.0819 191.997 12.0603C191.2 11.0387 190.154 10.5403 188.834 10.5403C187.514 10.5403 186.468 11.0387 185.671 12.0603C184.874 13.0819 184.5 14.4524 184.5 16.2216C184.5 17.9659 184.899 19.3613 185.671 20.3829C186.468 21.4045 187.514 21.9029 188.834 21.9029C190.129 21.9029 191.175 21.4045 191.972 20.3829C192.769 19.3862 193.167 18.0157 193.167 16.2963Z" fill="black"/>
    <path d="M212.02 11.5868C211.447 11.4872 210.949 11.4623 210.526 11.4623C207.712 11.4623 206.317 12.8577 206.317 15.6734V25.4911H201.535V7.00194H206.317V10.615C206.815 9.36915 207.512 8.39735 208.434 7.69965C209.355 7.02686 210.351 6.67801 211.447 6.67801C211.647 6.67801 211.846 6.67801 212.02 6.70293V11.5868Z" fill="black"/>
    <path d="M63.886 46H61.5449V36.9548H63.886V46ZM63.886 35.8833H61.5449V33.541H63.886V35.8833Z" fill="black"/>
    <path d="M74.5214 43.0846C74.5214 44.0066 74.1727 44.7043 73.5003 45.1777C72.8278 45.6512 71.8565 45.9003 70.5615 45.9003C67.7721 45.9003 66.3525 44.9036 66.3027 42.8853H68.594C68.6936 43.3338 68.8928 43.6577 69.1668 43.8072C69.4408 43.9817 69.8641 44.0564 70.437 44.0564C71.6075 44.0564 72.1803 43.8072 72.1803 43.284C72.1803 43.0348 71.9063 42.8354 71.3833 42.661L68.594 41.7889C67.797 41.5397 67.274 41.2656 67.025 40.9417C66.751 40.6177 66.6265 40.1692 66.6265 39.5712C66.6265 38.6492 66.9503 37.9017 67.6227 37.3784C68.2951 36.8302 69.1917 36.5561 70.3373 36.5561C71.5577 36.5561 72.5041 36.8302 73.2014 37.3784C73.8987 37.9266 74.2474 38.6741 74.2723 39.621H72.006C72.006 38.7987 71.4331 38.4 70.3124 38.4C69.889 38.4 69.5653 38.4748 69.3162 38.6243C69.0672 38.7738 68.9427 38.9731 68.9427 39.2472C68.9427 39.4466 68.9925 39.5712 69.117 39.6708C69.2166 39.7705 69.4408 39.8453 69.7645 39.9449L72.7282 40.7922C73.8987 41.141 74.4964 41.8636 74.4964 42.96V43.0846H74.5214Z" fill="black"/>
    <path d="M84.6557 41.3154C84.6557 42.7607 84.2572 43.882 83.4603 44.7043C82.6633 45.5266 81.5675 45.9253 80.1977 45.9253C78.8031 45.9253 77.7072 45.5266 76.9103 44.7043C76.1133 43.882 75.7148 42.7357 75.7148 41.2656C75.7148 39.7954 76.1133 38.6492 76.9103 37.8269C77.7072 37.0046 78.7782 36.6059 80.1728 36.6059C81.5924 36.6059 82.7131 37.0046 83.4852 37.8269C84.2572 38.6243 84.6557 39.7954 84.6557 41.3154ZM82.3147 41.2656C82.3147 40.3935 82.1154 39.6958 81.7418 39.1974C81.3683 38.699 80.8453 38.4499 80.1977 38.4499C79.5502 38.4499 79.0272 38.699 78.6536 39.1974C78.2801 39.6958 78.0808 40.3685 78.0808 41.2407C78.0808 42.0879 78.2801 42.7856 78.6536 43.2839C79.0272 43.7823 79.5502 44.0315 80.1977 44.0315C80.8453 44.0315 81.3434 43.7823 81.7418 43.2839C82.1154 42.7856 82.3147 42.1128 82.3147 41.2656Z" fill="black"/>
    <path d="M94.3949 45.7509H92.0538V44.5548C91.3814 45.4518 90.4848 45.9004 89.3392 45.9004C88.3679 45.9004 87.6456 45.6263 87.0977 45.0781C86.5747 44.5299 86.3008 43.7574 86.3008 42.7607V36.7056H88.6418V42.2873C88.6418 43.3587 89.1399 43.9069 90.1361 43.9069C90.709 43.9069 91.1572 43.7574 91.5059 43.4335C91.8546 43.1096 92.0289 42.6859 92.0289 42.1378V36.7056H94.37V45.7509H94.3949Z" fill="black"/>
    <path d="M101.767 38.9732C101.493 38.9234 101.244 38.8985 101.019 38.8985C99.6497 38.8985 98.9524 39.5962 98.9524 40.9666V45.7758H96.6113V36.7306H98.9524V38.4998C99.2014 37.8768 99.5501 37.4034 99.9984 37.0794C100.447 36.7555 100.945 36.5811 101.468 36.5811C101.567 36.5811 101.667 36.5811 101.742 36.606L101.767 38.9732Z" fill="black"/>
    <path d="M110.807 42.6361C110.708 43.6079 110.284 44.4053 109.562 45.0034C108.84 45.6014 107.943 45.9253 106.873 45.9253C105.528 45.9253 104.482 45.5266 103.734 44.7293C102.987 43.9319 102.639 42.8106 102.639 41.3155C102.639 39.7955 103.012 38.6244 103.759 37.8021C104.507 36.9798 105.553 36.5811 106.922 36.5811C108.043 36.5811 108.965 36.905 109.662 37.528C110.359 38.1509 110.758 39.023 110.832 40.1194H108.591C108.466 39.5214 108.267 39.0978 108.018 38.8486C107.769 38.5994 107.396 38.4748 106.922 38.4748C105.652 38.4748 105.005 39.4217 105.005 41.3155C105.005 42.1876 105.179 42.8604 105.503 43.3339C105.827 43.8073 106.3 44.0316 106.897 44.0316C107.346 44.0316 107.694 43.9319 107.943 43.7076C108.192 43.4834 108.417 43.1345 108.566 42.6611L110.807 42.6361Z" fill="black"/>
    <path d="M120.17 41.5896L120.145 41.8637H114.093C114.118 42.7109 114.293 43.284 114.617 43.6329C114.94 43.9568 115.389 44.1312 115.961 44.1312C116.958 44.1312 117.555 43.8322 117.755 43.2342H120.071C119.822 44.1063 119.324 44.7791 118.576 45.2276C117.829 45.7011 116.933 45.9253 115.912 45.9253C114.617 45.9253 113.595 45.5266 112.873 44.7293C112.151 43.9319 111.777 42.8106 111.777 41.3653C111.777 39.8703 112.151 38.6742 112.898 37.8519C113.645 37.0047 114.666 36.5811 115.961 36.5811C117.281 36.5811 118.327 37.0296 119.074 37.9017C119.797 38.7988 120.17 40.0198 120.17 41.5896ZM117.73 40.2939C117.68 39.646 117.481 39.1726 117.157 38.8486C116.833 38.5247 116.41 38.3503 115.912 38.3503C114.89 38.3503 114.293 38.9981 114.143 40.2939H117.73Z" fill="black"/>
    <path d="M0 46H45.9759V0H0V46ZM35.7563 35.775H10.2196V10.225H35.7563V35.775Z" fill="#1F00E0"/>
    <path d="M30.6588 15.35H15.3418V30.675H30.6588V15.35Z" fill="#1F00E0"/>
    <path d="M10.2188 35.775H35.7554V10.2251H10.2188V35.775ZM30.658 30.675H15.3411V15.3501H30.658V30.675Z" fill="white"/>
  </g>
  <defs>
    <clipPath id="clip0">
      <rect width="212" height="46" fill="white"/>
    </clipPath>
  </defs>
</svg>
