<svg width="304" height="48" viewBox="0 0 304 48" fill="none" xmlns="http://www.w3.org/2000/svg">
<path d="M30.0001 15.0317H15.0024V30.0316H30.0001V15.0317Z" fill="#2900D3"/>
<path fill-rule="evenodd" clip-rule="evenodd" d="M0 0H45V45H0V0ZM9.99998 15.0317H10.0022V30.0316H9.99998V35.0314H10.0022V35.0387H15.0024V35.0314L34.9999 35.0313V10.0314L9.99998 10.0319V15.0317Z" fill="#2900D3"/>
<path d="M60.0469 6.24601V24H64.6009V6.24601H60.0469ZM60.0469 0.0750122V4.29901H64.6009V0.0750122H60.0469Z" fill="#0B0820"/>
<path d="M73.2376 6.24601H68.6836V24H73.2376V14.76C73.2376 11.955 73.8976 9.51301 76.9006 9.51301C79.4746 9.51301 79.9696 11.526 79.9696 13.803V24H84.5236V12.813C84.5236 8.42401 82.6426 5.85001 78.3856 5.85001C76.1746 5.85001 74.2606 6.77401 73.2376 8.58901V6.24601Z" fill="#0B0820"/>
<path d="M102.598 11.592C101.971 7.50001 98.4728 5.78401 94.7768 5.78401C90.9488 5.78401 87.5168 7.89601 87.5168 11.064C87.5168 14.298 89.7278 15.684 93.0608 16.377L95.7008 16.938C97.2518 17.301 98.6048 17.796 98.6048 19.116C98.6048 20.403 97.3838 21.129 95.4038 21.129C93.0278 21.129 91.8398 19.842 91.5758 18.126H87.1868C87.6158 22.185 90.9158 24.429 95.2718 24.429C99.2978 24.429 102.961 22.251 102.961 18.687C102.961 15.024 99.9578 14.133 96.4268 13.341L94.0508 12.813C92.3678 12.45 91.6748 11.724 91.6748 10.767C91.6748 9.67801 92.8628 9.05101 94.5458 9.05101C96.6578 9.05101 97.9778 10.107 98.3408 11.592H102.598Z" fill="#0B0820"/>
<path d="M114.356 20.931C111.848 20.931 110.198 18.786 110.198 15.123C110.198 11.559 111.848 9.34801 114.356 9.34801C116.732 9.34801 118.415 11.691 118.415 15.156C118.415 18.621 116.732 20.931 114.356 20.931ZM110.363 29.775V21.756C111.518 23.736 113.597 24.429 115.445 24.429C119.669 24.429 123.2 20.799 123.2 15.123C123.2 9.54601 119.768 5.85001 115.478 5.85001C113.234 5.85001 111.32 6.84001 110.363 8.52301V6.24601H105.809V29.775H110.363Z" fill="#0B0820"/>
<path d="M142.868 16.377C143.033 10.107 139.634 5.85001 134.156 5.85001C128.909 5.85001 125.246 9.77701 125.246 15.057C125.246 20.172 128.579 24.429 134.288 24.429C139.139 24.429 141.713 21.492 142.67 18.852H137.984C137.06 20.403 135.674 20.898 134.255 20.898C132.077 20.898 130.031 19.413 129.767 16.377H142.868ZM134.123 9.18301C136.037 9.18301 138.149 10.239 138.248 13.242H129.833C130.196 10.239 132.407 9.18301 134.123 9.18301Z" fill="#0B0820"/>
<path d="M154.04 5.85001C148.727 5.85001 145.13 9.74401 145.13 15.156C145.13 20.535 148.529 24.429 153.842 24.429C157.538 24.429 161.201 22.812 162.257 17.961H157.901C157.274 20.073 155.657 20.898 154.073 20.898C151.565 20.898 149.783 18.819 149.783 15.09C149.783 11.394 151.664 9.38101 154.04 9.38101C155.789 9.38101 157.373 10.602 157.736 12.318H162.092C161.465 7.92901 157.769 5.85001 154.04 5.85001Z" fill="#0B0820"/>
<path d="M165.604 6.24601H163.096V9.38101H165.604V19.215C165.604 22.746 166.363 24 170.455 24H173.788V20.733H172.402C170.785 20.733 170.158 20.37 170.158 18.555V9.38101H173.854V6.24601H170.158V1.42801H165.604V6.24601Z" fill="#0B0820"/>
<path d="M184.493 9.41401C187.001 9.41401 188.783 11.427 188.783 15.156C188.783 18.885 187.001 20.865 184.493 20.865C181.985 20.865 180.203 18.885 180.203 15.156C180.203 11.427 181.985 9.41401 184.493 9.41401ZM184.493 24.429C188.981 24.429 193.403 21.36 193.403 15.156C193.403 8.91901 188.981 5.85001 184.493 5.85001C180.005 5.85001 175.583 8.91901 175.583 15.156C175.583 21.36 180.005 24.429 184.493 24.429Z" fill="#0B0820"/>
<path d="M206.465 6.34501C206.168 6.31201 205.772 6.27901 205.475 6.27901C203.396 6.27901 201.812 7.13701 200.789 9.34801V6.24601H196.301V24H200.855V14.694C200.855 11.361 202.34 10.536 204.584 10.536C205.244 10.536 205.805 10.536 206.465 10.635V6.34501Z" fill="#0B0820"/>
<path d="M217.001 17.9998V12.9998H212.001V17.9998H217.001Z" fill="#0B0820"/>
<path d="M233.107 6.34501C232.81 6.31201 232.414 6.27901 232.117 6.27901C230.038 6.27901 228.454 7.13701 227.431 9.34801V6.24601H222.943V24H227.497V14.694C227.497 11.361 228.982 10.536 231.226 10.536C231.886 10.536 232.447 10.536 233.107 10.635V6.34501Z" fill="#0B0820"/>
<path d="M245.891 17.202C245.891 19.809 244.703 21.327 241.832 21.327C239.753 21.327 238.763 20.271 238.763 18.984C238.763 17.004 240.776 16.41 245.891 15.882V17.202ZM246.287 21.789C246.386 22.68 246.452 23.439 246.584 24H250.775C250.412 22.515 250.247 20.931 250.247 18.126C250.247 16.542 250.313 14.133 250.313 13.605C250.313 7.63201 246.848 5.78401 242.657 5.78401C238.07 5.78401 235.232 8.35801 234.869 11.856H239.126C239.225 9.87601 240.677 8.98501 242.426 8.98501C244.274 8.98501 245.759 9.94201 245.759 12.681V12.978C238.763 13.77 234.077 15.024 234.077 19.215C234.077 22.449 237.08 24.429 240.479 24.429C243.152 24.429 245 23.637 246.287 21.789Z" fill="#0B0820"/>
<path d="M270.342 24V0.0750122H265.788V8.52301C264.831 6.84001 262.917 5.85001 260.673 5.85001C256.383 5.85001 252.951 9.54601 252.951 15.123C252.951 20.799 256.449 24.429 260.673 24.429C262.521 24.429 264.633 23.736 265.788 21.756V24H270.342ZM261.795 20.931C259.419 20.931 257.736 18.621 257.736 15.156C257.736 11.691 259.419 9.34801 261.795 9.34801C264.303 9.34801 265.953 11.559 265.953 15.123C265.953 18.786 264.303 20.931 261.795 20.931Z" fill="#0B0820"/>
<path d="M285.529 17.202C285.529 19.809 284.341 21.327 281.47 21.327C279.391 21.327 278.401 20.271 278.401 18.984C278.401 17.004 280.414 16.41 285.529 15.882V17.202ZM285.925 21.789C286.024 22.68 286.09 23.439 286.222 24H290.413C290.05 22.515 289.885 20.931 289.885 18.126C289.885 16.542 289.951 14.133 289.951 13.605C289.951 7.63201 286.486 5.78401 282.295 5.78401C277.708 5.78401 274.87 8.35801 274.507 11.856H278.764C278.863 9.87601 280.315 8.98501 282.064 8.98501C283.912 8.98501 285.397 9.94201 285.397 12.681V12.978C278.401 13.77 273.715 15.024 273.715 19.215C273.715 22.449 276.718 24.429 280.117 24.429C282.79 24.429 284.638 23.637 285.925 21.789Z" fill="#0B0820"/>
<path d="M303.909 6.34501C303.612 6.31201 303.216 6.27901 302.919 6.27901C300.84 6.27901 299.256 7.13701 298.233 9.34801V6.24601H293.745V24H298.299V14.694C298.299 11.361 299.784 10.536 302.028 10.536C302.688 10.536 303.249 10.536 303.909 10.635V6.34501Z" fill="#0B0820"/>
<path d="M64.4577 43.419C63.1657 43.419 62.3157 42.314 62.3157 40.427C62.3157 38.591 63.1657 37.452 64.4577 37.452C65.6817 37.452 66.5487 38.659 66.5487 40.444C66.5487 42.229 65.6817 43.419 64.4577 43.419ZM62.4007 47.975V43.844C62.9957 44.864 64.0667 45.221 65.0187 45.221C67.1947 45.221 69.0137 43.351 69.0137 40.427C69.0137 37.554 67.2457 35.65 65.0357 35.65C63.8797 35.65 62.8937 36.16 62.4007 37.027V35.854H60.0547V47.975H62.4007Z" fill="#0B0820"/>
<path d="M75.7663 35.905C75.6133 35.888 75.4093 35.871 75.2563 35.871C74.1853 35.871 73.3693 36.313 72.8423 37.452V35.854H70.5303V45H72.8763V40.206C72.8763 38.489 73.6413 38.064 74.7973 38.064C75.1373 38.064 75.4263 38.064 75.7663 38.115V35.905Z" fill="#0B0820"/>
<path d="M80.9497 37.486C82.2417 37.486 83.1597 38.523 83.1597 40.444C83.1597 42.365 82.2417 43.385 80.9497 43.385C79.6577 43.385 78.7397 42.365 78.7397 40.444C78.7397 38.523 79.6577 37.486 80.9497 37.486ZM80.9497 45.221C83.2617 45.221 85.5397 43.64 85.5397 40.444C85.5397 37.231 83.2617 35.65 80.9497 35.65C78.6377 35.65 76.3597 37.231 76.3597 40.444C76.3597 43.64 78.6377 45.221 80.9497 45.221Z" fill="#0B0820"/>
<path d="M91.16 35.65C88.423 35.65 86.57 37.656 86.57 40.444C86.57 43.215 88.321 45.221 91.058 45.221C92.962 45.221 94.849 44.388 95.393 41.889H93.149C92.826 42.977 91.993 43.402 91.177 43.402C89.885 43.402 88.967 42.331 88.967 40.41C88.967 38.506 89.936 37.469 91.16 37.469C92.061 37.469 92.877 38.098 93.064 38.982H95.308C94.985 36.721 93.081 35.65 91.16 35.65Z" fill="#0B0820"/>
<path d="M105.36 41.073C105.445 37.843 103.694 35.65 100.872 35.65C98.169 35.65 96.282 37.673 96.282 40.393C96.282 43.028 97.999 45.221 100.94 45.221C103.439 45.221 104.765 43.708 105.258 42.348H102.844C102.368 43.147 101.654 43.402 100.923 43.402C99.8009 43.402 98.747 42.637 98.611 41.073H105.36ZM100.855 37.367C101.841 37.367 102.929 37.911 102.98 39.458H98.645C98.832 37.911 99.971 37.367 100.855 37.367Z" fill="#0B0820"/>
<path d="M114.298 38.608C113.975 36.5 112.173 35.616 110.269 35.616C108.297 35.616 106.529 36.704 106.529 38.336C106.529 40.002 107.668 40.716 109.385 41.073L110.745 41.362C111.544 41.549 112.241 41.804 112.241 42.484C112.241 43.147 111.612 43.521 110.592 43.521C109.368 43.521 108.756 42.858 108.62 41.974H106.359C106.58 44.065 108.28 45.221 110.524 45.221C112.598 45.221 114.485 44.099 114.485 42.263C114.485 40.376 112.938 39.917 111.119 39.509L109.895 39.237C109.028 39.05 108.671 38.676 108.671 38.183C108.671 37.622 109.283 37.299 110.15 37.299C111.238 37.299 111.918 37.843 112.105 38.608H114.298Z" fill="#0B0820"/>
<path d="M123.296 38.608C122.973 36.5 121.171 35.616 119.267 35.616C117.295 35.616 115.527 36.704 115.527 38.336C115.527 40.002 116.666 40.716 118.383 41.073L119.743 41.362C120.542 41.549 121.239 41.804 121.239 42.484C121.239 43.147 120.61 43.521 119.59 43.521C118.366 43.521 117.754 42.858 117.618 41.974H115.357C115.578 44.065 117.278 45.221 119.522 45.221C121.596 45.221 123.483 44.099 123.483 42.263C123.483 40.376 121.936 39.917 120.117 39.509L118.893 39.237C118.026 39.05 117.669 38.676 117.669 38.183C117.669 37.622 118.281 37.299 119.148 37.299C120.236 37.299 120.916 37.843 121.103 38.608H123.296Z" fill="#0B0820"/>
<path d="M129.011 37.486C130.303 37.486 131.221 38.523 131.221 40.444C131.221 42.365 130.303 43.385 129.011 43.385C127.719 43.385 126.801 42.365 126.801 40.444C126.801 38.523 127.719 37.486 129.011 37.486ZM129.011 45.221C131.323 45.221 133.601 43.64 133.601 40.444C133.601 37.231 131.323 35.65 129.011 35.65C126.699 35.65 124.421 37.231 124.421 40.444C124.421 43.64 126.699 45.221 129.011 45.221Z" fill="#0B0820"/>
<path d="M140.33 35.905C140.177 35.888 139.973 35.871 139.82 35.871C138.749 35.871 137.933 36.313 137.406 37.452V35.854H135.094V45H137.44V40.206C137.44 38.489 138.205 38.064 139.361 38.064C139.701 38.064 139.99 38.064 140.33 38.115V35.905Z" fill="#0B0820"/>
</svg>
