<svg width="128" height="32" viewBox="0 0 128 32" fill="none" xmlns="http://www.w3.org/2000/svg">
<rect width="31.21" height="31.21" fill="white"/>
<path fill-rule="evenodd" clip-rule="evenodd" d="M0 0H31.2106V31.2103H0V0ZM13.8712 6.93563H17.3391V24.2747H13.8712V6.93563Z" fill="#FF5E1A"/>
<path fill-rule="evenodd" clip-rule="evenodd" d="M124.019 7.4973V10.0203H124.545V9.06956H125.227L125.566 10.0203H126.096L125.718 8.95656C125.959 8.82937 126.093 8.59639 126.093 8.28189C126.093 7.78678 125.768 7.4973 125.206 7.4973H124.019ZM124.545 7.9599H125.079C125.429 7.9599 125.556 8.0515 125.556 8.28834C125.556 8.50042 125.443 8.62064 125.132 8.62064H124.545V7.9599Z" fill="black"/>
<path fill-rule="evenodd" clip-rule="evenodd" d="M127.138 6.67814C126.606 6.14562 125.87 5.81641 125.058 5.81641C124.245 5.81641 123.509 6.14562 122.977 6.67814C122.445 7.2104 122.115 7.94623 122.115 8.75868C122.115 9.57087 122.445 10.3067 122.977 10.839C123.509 11.3717 124.245 11.7009 125.058 11.7009C125.87 11.7009 126.606 11.3715 127.138 10.839C127.67 10.3067 128 9.57062 128 8.75868C128 7.94623 127.67 7.2104 127.138 6.67814ZM125.058 6.32443C125.73 6.32443 126.338 6.59713 126.778 7.03754C127.219 7.47795 127.491 8.08658 127.491 8.75868C127.491 9.43078 127.219 10.0391 126.778 10.4796C126.338 10.92 125.73 11.1924 125.058 11.1924C124.385 11.1924 123.777 10.92 123.337 10.4796C122.896 10.0391 122.624 9.43052 122.624 8.75868C122.624 8.08633 122.896 7.47795 123.337 7.03754C123.777 6.59713 124.385 6.32443 125.058 6.32443Z" fill="black"/>
<path d="M39.9004 11.4164H43.2088V24.3139H39.9004V11.4164Z" fill="black"/>
<path d="M39.9004 6.93333H43.2088V10.0023H39.9004V6.93333Z" fill="black"/>
<path d="M56.5374 15.3001H53.445C53.3011 14.7407 52.9933 14.2936 52.5219 13.9579C52.0503 13.622 51.439 13.4543 50.688 13.4543C50.0647 13.4543 49.5613 13.5666 49.1777 13.79C48.7943 14.0139 48.6023 14.3173 48.6023 14.701C48.6023 15.4363 49.1777 15.9319 50.3286 16.1873L52.0546 16.571C52.8217 16.7469 53.4409 16.9103 53.9125 17.0622C54.3836 17.2142 54.8671 17.4338 55.3628 17.7217C55.8581 18.0091 56.2216 18.377 56.4536 18.8241C56.685 19.2718 56.8011 19.8151 56.8011 20.4542C56.8011 21.7009 56.2536 22.7076 55.1589 23.4749C54.0642 24.2419 52.7497 24.6256 51.2154 24.6256C49.601 24.6256 48.2586 24.2221 47.1879 23.4148C46.117 22.6083 45.5016 21.4852 45.3422 20.0468H48.5303C48.6263 20.7021 48.9057 21.2297 49.3696 21.6291C49.833 22.0285 50.4803 22.2282 51.3113 22.2282C52.0307 22.2282 52.5977 22.1005 53.0134 21.8446C53.4288 21.5891 53.6367 21.2297 53.6367 20.7661C53.6367 20.3345 53.4528 20.0029 53.0854 19.771C52.7175 19.5398 52.1984 19.3437 51.527 19.184L49.6093 18.7764C48.2986 18.5047 47.2997 18.0731 46.6126 17.4817C45.9253 16.8904 45.5819 16.0356 45.5819 14.9169C45.5819 13.7982 46.101 12.879 47.14 12.1597C48.1787 11.4406 49.4173 11.0807 50.856 11.0807C52.3101 11.0807 53.5686 11.4326 54.6316 12.1357C55.6943 12.8392 56.3297 13.894 56.5374 15.3001Z" fill="black"/>
<path fill-rule="evenodd" clip-rule="evenodd" d="M64.592 24.6256C66.3498 24.6256 67.8679 24.0345 69.1468 22.8515C70.4252 21.6691 71.0645 20.0151 71.0645 17.8891C71.0645 15.7477 70.4252 14.0856 69.1468 12.9027C67.8679 11.7203 66.3498 11.1287 64.592 11.1287C62.8337 11.1287 61.3156 11.7203 60.0372 12.9027C58.7583 14.0856 58.1193 15.7477 58.1193 17.8891C58.1193 20.0151 58.7583 21.6691 60.0372 22.8515C61.3156 24.0345 62.8337 24.6256 64.592 24.6256ZM64.592 13.7175C65.5348 13.7175 66.2899 14.0815 66.8575 14.8086C67.4244 15.5361 67.7084 16.5627 67.7084 17.8889C67.7084 19.2158 67.4244 20.2385 66.8575 20.9578C66.2899 21.6768 65.5348 22.0365 64.592 22.0365C63.6488 22.0365 62.8936 21.6768 62.3265 20.9578C61.7592 20.2382 61.4756 19.2158 61.4756 17.8889C61.4756 16.5627 61.7592 15.5359 62.3265 14.8086C62.8936 14.0813 63.6488 13.7175 64.592 13.7175Z" fill="black"/>
<path d="M81.1091 24.3139V22.6118C80.7412 23.2669 80.2259 23.7667 79.5629 24.1101C78.8996 24.4537 78.1606 24.6256 77.3453 24.6256C74.4526 24.6256 73.0063 22.9395 73.0063 19.5672V11.4163H76.3146V18.8479C76.3146 19.8551 76.4542 20.6265 76.7341 21.1616C77.0136 21.697 77.577 21.9645 78.4241 21.9645C79.431 21.9645 80.13 21.6209 80.5219 20.9335C80.9133 20.247 81.1091 19.312 81.1091 18.1288V11.4163H84.4175V24.3139H81.1091Z" fill="black"/>
<path d="M94.7737 14.6047V11.4883C94.486 11.4563 94.2463 11.4403 94.0544 11.4401C92.4725 11.4401 91.3373 12.1831 90.6503 13.6697V11.4163H87.3899V24.3139H90.6983V17.5534C90.6983 16.4187 90.9261 15.6318 91.3815 15.1922C91.8371 14.7528 92.512 14.5327 93.407 14.5327C93.9981 14.5327 94.4538 14.5565 94.7737 14.6047Z" fill="black"/>
<path d="M102.109 11.1287C103.564 11.1287 104.846 11.5324 105.957 12.3392C107.067 13.1465 107.735 14.3093 107.959 15.8274H104.794C104.666 15.2041 104.347 14.693 103.836 14.2933C103.324 13.8942 102.749 13.694 102.109 13.694C101.214 13.694 100.475 14.0619 99.8919 14.797C99.3083 15.532 99.0168 16.5467 99.0168 17.8414C99.0168 19.168 99.3045 20.2026 99.8798 20.9459C100.455 21.689 101.206 22.0602 102.133 22.0602C102.757 22.0602 103.324 21.8848 103.836 21.5331C104.347 21.182 104.706 20.6461 104.914 19.9268H108.079C107.727 21.5729 106.992 22.7677 105.873 23.5107C104.754 24.2538 103.452 24.6256 101.965 24.6256C100.063 24.6256 98.5333 23.9986 97.3746 22.7437C96.2159 21.4893 95.6367 19.8708 95.6367 17.8891C95.6367 15.9074 96.2358 14.2853 97.4347 13.0227C98.6331 11.7603 100.191 11.1287 102.109 11.1287Z" fill="black"/>
<path fill-rule="evenodd" clip-rule="evenodd" d="M112.609 18.7761H122.127C122.19 16.4907 121.647 14.645 120.497 13.2389C119.346 11.8328 117.779 11.1289 115.798 11.1289C113.896 11.1289 112.341 11.7605 111.135 13.0229C109.928 14.2858 109.325 15.8842 109.325 17.8177C109.325 19.7514 109.916 21.3698 111.099 22.6722C112.282 23.9749 113.88 24.6258 115.894 24.6258C117.508 24.6258 118.826 24.23 119.849 23.439C120.872 22.6477 121.583 21.6931 121.983 20.5741H118.579C117.987 21.5654 117.084 22.0605 115.87 22.0605C115.022 22.0605 114.291 21.777 113.676 21.2096C113.061 20.642 112.705 19.8311 112.609 18.7761ZM113.76 14.2691C114.367 13.7897 115.038 13.55 115.774 13.55C116.573 13.55 117.264 13.7897 117.848 14.2691C118.431 14.7487 118.738 15.4918 118.77 16.4987H112.657C112.785 15.4915 113.153 14.7484 113.76 14.2691Z" fill="black"/>
</svg>
