<svg width="128" height="32" viewBox="0 0 128 32" fill="none" xmlns="http://www.w3.org/2000/svg">
<rect width="31.21" height="31.21" fill="white"/>
<path fill-rule="evenodd" clip-rule="evenodd" d="M0 0H31.2106V31.2103H0V0ZM13.8712 6.93563H17.3391V24.2747H13.8712V6.93563Z" fill="#FF5E1A"/>
<path fill-rule="evenodd" clip-rule="evenodd" d="M124.019 7.49699V10.02H124.545V9.06926H125.227L125.566 10.02H126.096L125.718 8.95626C125.959 8.82906 126.093 8.59609 126.093 8.28158C126.093 7.78647 125.768 7.49699 125.206 7.49699H124.019ZM124.545 7.9596H125.079C125.429 7.9596 125.556 8.05119 125.556 8.28804C125.556 8.50012 125.443 8.62034 125.132 8.62034H124.545V7.9596Z" fill="white"/>
<path fill-rule="evenodd" clip-rule="evenodd" d="M127.138 6.67784C126.606 6.14532 125.87 5.8161 125.058 5.8161C124.245 5.8161 123.509 6.14532 122.977 6.67784C122.445 7.2101 122.115 7.94593 122.115 8.75838C122.115 9.57057 122.445 10.3064 122.977 10.8386C123.509 11.3714 124.245 11.7006 125.058 11.7006C125.87 11.7006 126.606 11.3712 127.138 10.8386C127.67 10.3064 128 9.57031 128 8.75838C128 7.94593 127.67 7.2101 127.138 6.67784ZM125.058 6.32412C125.73 6.32412 126.338 6.59683 126.778 7.03724C127.219 7.47765 127.491 8.08628 127.491 8.75838C127.491 9.43047 127.219 10.0388 126.778 10.4792C126.338 10.9197 125.73 11.1921 125.058 11.1921C124.385 11.1921 123.777 10.9197 123.337 10.4792C122.896 10.0388 122.624 9.43021 122.624 8.75838C122.624 8.08602 122.896 7.47765 123.337 7.03724C123.777 6.59683 124.385 6.32412 125.058 6.32412Z" fill="white"/>
<path d="M39.9004 11.4161H43.2088V24.3136H39.9004V11.4161Z" fill="white"/>
<path d="M39.9004 6.93302H43.2088V10.002H39.9004V6.93302Z" fill="white"/>
<path d="M56.5374 15.2998H53.445C53.3011 14.7404 52.9933 14.2933 52.5219 13.9576C52.0503 13.6217 51.439 13.454 50.688 13.454C50.0647 13.454 49.5613 13.5662 49.1777 13.7897C48.7943 14.0136 48.6023 14.317 48.6023 14.7007C48.6023 15.436 49.1777 15.9316 50.3286 16.187L52.0546 16.5707C52.8217 16.7466 53.4409 16.91 53.9125 17.0619C54.3836 17.2139 54.8671 17.4335 55.3628 17.7214C55.8581 18.0088 56.2216 18.3767 56.4536 18.8238C56.685 19.2715 56.8011 19.8148 56.8011 20.4539C56.8011 21.7006 56.2536 22.7073 55.1589 23.4746C54.0642 24.2416 52.7497 24.6253 51.2154 24.6253C49.601 24.6253 48.2586 24.2218 47.1879 23.4145C46.117 22.6079 45.5016 21.4849 45.3422 20.0465H48.5303C48.6263 20.7018 48.9057 21.2294 49.3696 21.6288C49.833 22.0282 50.4803 22.2279 51.3113 22.2279C52.0307 22.2279 52.5977 22.1002 53.0134 21.8443C53.4288 21.5888 53.6367 21.2294 53.6367 20.7658C53.6367 20.3342 53.4528 20.0026 53.0854 19.7707C52.7175 19.5395 52.1984 19.3434 51.527 19.1837L49.6093 18.7761C48.2986 18.5044 47.2997 18.0728 46.6126 17.4814C45.9253 16.8901 45.5819 16.0353 45.5819 14.9166C45.5819 13.7979 46.101 12.8787 47.14 12.1594C48.1787 11.4403 49.4173 11.0804 50.856 11.0804C52.3101 11.0804 53.5686 11.4323 54.6316 12.1354C55.6943 12.8389 56.3297 13.8937 56.5374 15.2998Z" fill="white"/>
<path fill-rule="evenodd" clip-rule="evenodd" d="M64.592 24.6253C66.3498 24.6253 67.8679 24.0342 69.1468 22.8512C70.4252 21.6688 71.0645 20.0147 71.0645 17.8888C71.0645 15.7474 70.4252 14.0853 69.1468 12.9024C67.8679 11.72 66.3498 11.1284 64.592 11.1284C62.8337 11.1284 61.3156 11.72 60.0372 12.9024C58.7583 14.0853 58.1193 15.7474 58.1193 17.8888C58.1193 20.0147 58.7583 21.6688 60.0372 22.8512C61.3156 24.0342 62.8337 24.6253 64.592 24.6253ZM64.592 13.7172C65.5348 13.7172 66.2899 14.0812 66.8575 14.8083C67.4244 15.5358 67.7084 16.5624 67.7084 17.8886C67.7084 19.2155 67.4244 20.2382 66.8575 20.9575C66.2899 21.6765 65.5348 22.0362 64.592 22.0362C63.6488 22.0362 62.8936 21.6765 62.3265 20.9575C61.7592 20.2379 61.4756 19.2155 61.4756 17.8886C61.4756 16.5624 61.7592 15.5356 62.3265 14.8083C62.8936 14.0809 63.6488 13.7172 64.592 13.7172Z" fill="white"/>
<path d="M81.1091 24.3136V22.6115C80.7412 23.2666 80.2259 23.7664 79.5629 24.1098C78.8996 24.4534 78.1606 24.6253 77.3453 24.6253C74.4526 24.6253 73.0063 22.9392 73.0063 19.5668V11.416H76.3146V18.8475C76.3146 19.8548 76.4542 20.6262 76.7341 21.1613C77.0136 21.6967 77.577 21.9642 78.4241 21.9642C79.431 21.9642 80.13 21.6206 80.5219 20.9332C80.9133 20.2467 81.1091 19.3117 81.1091 18.1285V11.416H84.4175V24.3136H81.1091Z" fill="white"/>
<path d="M94.7737 14.6044V11.488C94.486 11.456 94.2463 11.44 94.0544 11.4398C92.4725 11.4398 91.3373 12.1828 90.6503 13.6694V11.416H87.3899V24.3136H90.6983V17.5531C90.6983 16.4184 90.9261 15.6315 91.3815 15.1919C91.8371 14.7525 92.512 14.5324 93.407 14.5324C93.9981 14.5324 94.4538 14.5562 94.7737 14.6044Z" fill="white"/>
<path d="M102.109 11.1284C103.564 11.1284 104.846 11.5321 105.957 12.3389C107.067 13.1462 107.735 14.309 107.959 15.8271H104.794C104.666 15.2038 104.347 14.6927 103.836 14.293C103.324 13.8939 102.749 13.6937 102.109 13.6937C101.214 13.6937 100.475 14.0616 99.8919 14.7967C99.3083 15.5317 99.0168 16.5464 99.0168 17.8411C99.0168 19.1677 99.3045 20.2023 99.8798 20.9456C100.455 21.6887 101.206 22.0599 102.133 22.0599C102.757 22.0599 103.324 21.8845 103.836 21.5328C104.347 21.1817 104.706 20.6458 104.914 19.9265H108.079C107.727 21.5726 106.992 22.7674 105.873 23.5104C104.754 24.2535 103.452 24.6253 101.965 24.6253C100.063 24.6253 98.5333 23.9983 97.3746 22.7434C96.2159 21.489 95.6367 19.8705 95.6367 17.8888C95.6367 15.9071 96.2358 14.285 97.4347 13.0224C98.6331 11.76 100.191 11.1284 102.109 11.1284Z" fill="white"/>
<path fill-rule="evenodd" clip-rule="evenodd" d="M112.609 18.7758H122.127C122.19 16.4904 121.647 14.6447 120.497 13.2386C119.346 11.8325 117.779 11.1286 115.798 11.1286C113.896 11.1286 112.341 11.7602 111.135 13.0226C109.928 14.2855 109.325 15.8839 109.325 17.8173C109.325 19.7511 109.916 21.3695 111.099 22.6719C112.282 23.9746 113.88 24.6255 115.894 24.6255C117.508 24.6255 118.826 24.2297 119.849 23.4387C120.872 22.6474 121.583 21.6928 121.983 20.5738H118.579C117.987 21.5651 117.084 22.0602 115.87 22.0602C115.022 22.0602 114.291 21.7766 113.676 21.2093C113.061 20.6417 112.705 19.8308 112.609 18.7758ZM113.76 14.2688C114.367 13.7894 115.038 13.5497 115.774 13.5497C116.573 13.5497 117.264 13.7894 117.848 14.2688C118.431 14.7484 118.738 15.4915 118.77 16.4984H112.657C112.785 15.4912 113.153 14.7481 113.76 14.2688Z" fill="white"/>
</svg>
