<svg width="128" height="26" viewBox="0 0 128 26" fill="none" xmlns="http://www.w3.org/2000/svg">
<path d="M24.7697 0.38916H0V25.1588H24.7697V0.38916Z" fill="#FF5F19"/>
<path d="M13.7542 5.89307H11.0004V19.6548H13.7542V5.89307Z" fill="white"/>
<path d="M33.0161 3.14307H36.6841V6.55696H33.0161V3.14307ZM33.0161 8.10838H36.6841V22.405H33.0161V8.10838Z" fill="black"/>
<path d="M51.4549 12.3988H48.041C47.8922 11.7949 47.528 11.2662 47.0169 10.9118C46.415 10.5161 45.7033 10.3209 44.9837 10.3542C44.4025 10.3316 43.8255 10.4624 43.3109 10.7336C43.1163 10.8236 42.9511 10.9668 42.8343 11.1467C42.7175 11.3265 42.6539 11.5357 42.6509 11.7501C42.6509 12.5669 43.2831 13.1157 44.5475 13.3964L46.4441 13.8212C47.2976 14.0185 47.9614 14.2005 48.5038 14.3675C49.0647 14.5528 49.604 14.7983 50.1121 15.0995C50.6444 15.3732 51.0839 15.7982 51.3753 16.321C51.7883 17.2104 51.8709 18.2178 51.6081 19.1626C51.3453 20.1074 50.7544 20.9275 49.9414 21.4759C48.653 22.3482 47.1232 22.794 45.5679 22.7504C43.972 22.8099 42.4016 22.3375 41.1033 21.4077C40.5173 20.966 40.0319 20.4049 39.6795 19.7613C39.327 19.1178 39.1154 18.4067 39.0587 17.6751H42.594C42.6732 18.3551 43.0049 18.9806 43.5233 19.4276C44.1353 19.9038 44.9002 20.1399 45.6741 20.0914C46.3333 20.1268 46.9895 19.9798 47.5707 19.6666C47.7813 19.547 47.9551 19.3721 48.0735 19.1608C48.1918 18.9496 48.2501 18.7099 48.2421 18.4679C48.2493 18.2465 48.1963 18.0272 48.0887 17.8335C47.9812 17.6398 47.8231 17.4789 47.6314 17.3679C47.0928 17.0606 46.509 16.8404 45.9017 16.7154L43.7889 16.2679C42.5795 16.0729 41.4376 15.5801 40.466 14.834C39.7074 14.1778 39.328 13.2295 39.328 11.9891C39.328 10.7487 39.9046 9.71318 41.0539 8.95454C42.2689 8.13613 43.709 7.71712 45.1734 7.75588C46.6501 7.72051 48.1036 8.12879 49.3459 8.92799C49.9295 9.31749 50.4207 9.83005 50.7851 10.4297C51.1494 11.0293 51.3781 11.7014 51.4549 12.3988Z" fill="black"/>
<path d="M65.3001 20.7849C63.9224 22.0487 62.1209 22.7498 60.2513 22.7498C58.3818 22.7498 56.5803 22.0487 55.2026 20.7849C53.7839 19.4725 53.0746 17.6391 53.0746 15.2848C53.0746 12.9304 53.7839 11.0832 55.2026 9.74288C56.5791 8.47669 58.3811 7.77393 60.2513 7.77393C62.1216 7.77393 63.9236 8.47669 65.3001 9.74288C66.7137 11.0528 67.4218 12.895 67.4243 15.2696C67.4268 17.6441 66.7188 19.4775 65.3001 20.7697V20.7849ZM62.7549 11.8709C62.4543 11.4932 62.0724 11.1881 61.6377 10.9785C61.2029 10.7688 60.7264 10.6599 60.2438 10.6599C59.7611 10.6599 59.2846 10.7688 58.8498 10.9785C58.4151 11.1881 58.0332 11.4932 57.7326 11.8709C57.103 12.675 56.7881 13.813 56.7881 15.2848C56.7881 16.7565 57.103 17.8945 57.7326 18.6987C58.036 19.072 58.4189 19.373 58.8533 19.5798C59.2876 19.7865 59.7627 19.8938 60.2438 19.8938C60.7248 19.8938 61.1999 19.7865 61.6343 19.5798C62.0687 19.373 62.4515 19.072 62.7549 18.6987C63.3795 17.9021 63.693 16.7641 63.6956 15.2848C63.6981 13.8054 63.3845 12.6674 62.7549 11.8709Z" fill="black"/>
<path d="M78.5574 22.4055V20.5089C78.1636 21.2198 77.5666 21.797 76.8428 22.1665C76.0824 22.5548 75.2386 22.7514 74.3848 22.7393C71.1834 22.7469 69.5826 20.8819 69.5826 17.1443V8.10889H73.2507V16.3477C73.2044 17.2271 73.3642 18.1052 73.7172 18.912C74.0245 19.5037 74.6504 19.7996 75.5873 19.7996C76.705 19.7996 77.4801 19.4202 77.9125 18.6616C78.3935 17.6994 78.6182 16.6294 78.565 15.555V8.10889H82.233V22.4055H78.5574Z" fill="black"/>
<path d="M93.6999 8.18854V11.6404C93.1966 11.5784 92.6896 11.5518 92.1826 11.5607C91.1926 11.5607 90.4415 11.8035 89.937 12.2928C89.4325 12.7821 89.1784 13.6508 89.1784 14.9101V22.4055H85.5142V8.10889H89.1291V10.6086C89.8877 8.96236 91.1446 8.13797 92.8995 8.13544C93.1658 8.13952 93.4317 8.15724 93.6961 8.18854" fill="black"/>
<path d="M101.825 7.78963C103.354 7.76384 104.85 8.23505 106.089 9.13242C106.706 9.58801 107.222 10.1668 107.604 10.8322C107.986 11.4975 108.225 12.2349 108.308 12.9977H104.799C104.666 12.3197 104.288 11.7146 103.737 11.2983C103.415 11.044 103.045 10.8565 102.65 10.7468C102.255 10.637 101.842 10.6072 101.435 10.6591C101.028 10.7111 100.635 10.8437 100.28 11.0492C99.9252 11.2547 99.6147 11.529 99.3669 11.8559C98.7183 12.6715 98.3959 13.7943 98.3959 15.2319C98.3959 16.6695 98.7145 17.8492 99.3518 18.6724C99.6383 19.064 100.015 19.3807 100.45 19.5953C100.886 19.81 101.366 19.9162 101.852 19.9051C102.529 19.9134 103.192 19.7091 103.748 19.321C104.347 18.8901 104.77 18.2589 104.943 17.542H108.452C108.06 19.3652 107.242 20.6853 105.997 21.5021C104.71 22.3395 103.201 22.7703 101.666 22.7387C99.5566 22.7387 97.8598 22.0433 96.5751 20.6524C95.2905 19.2616 94.6495 17.4686 94.652 15.2736C94.652 13.0761 95.3158 11.2781 96.6434 9.87969C97.3109 9.18563 98.1176 8.6406 99.0106 8.28039C99.9036 7.92018 100.863 7.75293 101.825 7.78963Z" fill="black"/>
<path d="M123.886 16.2676H113.337C113.375 17.2842 113.799 18.2483 114.521 18.9646C115.176 19.5834 116.048 19.921 116.949 19.9053C117.553 19.9369 118.154 19.7996 118.684 19.5089C119.215 19.2181 119.654 18.7853 119.953 18.2591H123.727C123.264 19.5254 122.442 20.6289 121.36 21.434C120.225 22.3089 118.763 22.7477 116.975 22.7502C114.745 22.7502 112.975 22.0283 111.665 20.5843C110.34 19.1116 109.635 17.185 109.696 15.2055C109.663 14.2317 109.824 13.261 110.168 12.3496C110.512 11.4381 111.034 10.6038 111.703 9.89503C112.367 9.20087 113.171 8.65486 114.061 8.29273C114.952 7.93061 115.908 7.76052 116.869 7.7936C119.064 7.7936 120.8 8.57373 122.077 10.134C123.354 11.6943 123.957 13.7401 123.886 16.2714V16.2676ZM116.842 10.4754C116.029 10.475 115.241 10.7565 114.612 11.272C113.937 11.803 113.53 12.6261 113.391 13.7414H120.165C120.13 12.6261 119.788 11.803 119.141 11.272C118.495 10.7402 117.679 10.4576 116.842 10.4754Z" fill="black"/>
<path d="M127.998 5.21013C127.975 5.73962 127.749 6.23986 127.366 6.60648C126.984 6.9731 126.474 7.17776 125.944 7.17776C125.414 7.17776 124.905 6.9731 124.522 6.60648C124.139 6.23986 123.913 5.73962 123.89 5.21013C123.878 4.93296 123.922 4.65625 124.02 4.39666C124.118 4.13708 124.268 3.89997 124.459 3.69964C124.651 3.49931 124.882 3.33988 125.137 3.23097C125.392 3.12206 125.667 3.06592 125.944 3.06592C126.222 3.06592 126.496 3.12206 126.751 3.23097C127.006 3.33988 127.237 3.49931 127.429 3.69964C127.621 3.89997 127.77 4.13708 127.868 4.39666C127.966 4.65625 128.01 4.93296 127.998 5.21013ZM127.581 5.21013C127.581 4.77653 127.409 4.3607 127.102 4.0541C126.795 3.7475 126.38 3.57525 125.946 3.57525C125.512 3.57525 125.097 3.7475 124.79 4.0541C124.483 4.3607 124.311 4.77653 124.311 5.21013C124.311 5.64372 124.483 6.05956 124.79 6.36616C125.097 6.67276 125.512 6.845 125.946 6.845C126.38 6.845 126.795 6.67276 127.102 6.36616C127.409 6.05956 127.581 5.64372 127.581 5.21013ZM125.597 5.40737V6.22291H125.108V4.0532H125.836C126.462 4.0532 126.856 4.17458 126.856 4.74356C126.862 4.86884 126.829 4.99279 126.761 5.09816C126.693 5.20354 126.594 5.28511 126.477 5.33151L126.993 6.24188H126.45L125.999 5.42634L125.597 5.40737ZM125.597 4.42493V5.02805H125.946C126.249 5.02805 126.371 4.92184 126.371 4.73218C126.371 4.54252 126.2 4.42493 125.931 4.42493H125.597Z" fill="black"/>
</svg>
