<svg width="156" height="33" viewBox="0 0 156 33" fill="none" xmlns="http://www.w3.org/2000/svg">
<path d="M45.7934 18.3688H42.4705V5.54457H45.7934V18.3688ZM45.8453 4.00427H42.5224V0.681396H45.8453V4.00427Z" fill="black"/>
<path d="M60.4522 18.3688H57.1293V10.4597C57.1293 8.91939 56.4197 8.1579 54.9833 8.1579C54.1699 8.1579 53.5295 8.38289 53.0276 8.85017C52.543 9.31745 52.2835 9.92318 52.2835 10.6847V18.3861H48.9606V5.54459H52.2835V7.39641C53.2007 6.01187 54.4814 5.33691 56.1255 5.33691C57.4928 5.33691 58.5485 5.71766 59.2926 6.49646C60.0368 7.27526 60.4176 8.36558 60.4176 9.76742V18.3688H60.4522Z" fill="black"/>
<path d="M74.3494 14.5787C74.3494 15.8767 73.8648 16.8631 72.8956 17.5554C71.9264 18.2477 70.5419 18.5938 68.742 18.5938C64.7961 18.5938 62.7712 17.1747 62.6847 14.3191H65.9383C66.0768 14.9767 66.3537 15.4094 66.7518 15.6344C67.1498 15.8594 67.7555 15.9805 68.5517 15.9805C70.1958 15.9805 71.0265 15.6171 71.0265 14.8902C71.0265 14.544 70.6458 14.2498 69.9016 14.0075L65.9383 12.7788C64.8134 12.4326 64.0692 12.0346 63.6885 11.5673C63.3077 11.1 63.1347 10.4597 63.1347 9.61166C63.1347 8.29635 63.6019 7.25795 64.5538 6.49646C65.4884 5.73497 66.7864 5.33691 68.4132 5.33691C70.1439 5.33691 71.4938 5.71766 72.4803 6.49646C73.4667 7.25795 73.9686 8.33096 74.0032 9.69819H70.8015C70.7842 8.53864 69.9881 7.96752 68.3959 7.96752C67.8075 7.96752 67.3402 8.07136 66.9941 8.29635C66.6479 8.50403 66.4749 8.79824 66.4749 9.16168C66.4749 9.43859 66.5614 9.62896 66.7171 9.76741C66.8729 9.90587 67.1844 10.027 67.6517 10.1655L71.8572 11.3769C73.536 11.8615 74.3667 12.8826 74.3667 14.4402V14.5787H74.3494Z" fill="black"/>
<path d="M88.835 11.9654C88.835 13.9037 88.3331 15.4786 87.312 16.7247C86.2909 17.9708 85.0102 18.5938 83.4699 18.5938C81.8258 18.5938 80.6317 17.9535 79.9048 16.6728V23.5608H76.5819V5.56193H79.9048V7.46566C80.7009 6.06382 81.8777 5.35425 83.4699 5.35425C85.1141 5.35425 86.4294 5.97729 87.3812 7.20606C88.3504 8.41753 88.835 10.0097 88.835 11.9654ZM85.5121 12C85.5121 10.7885 85.2525 9.85398 84.7506 9.14441C84.2487 8.45214 83.5565 8.10601 82.7085 8.10601C81.8604 8.10601 81.1855 8.45214 80.6836 9.14441C80.1644 9.83667 79.9048 10.7712 79.9048 11.9654C79.9048 13.1595 80.1644 14.0941 80.6836 14.7864C81.2028 15.4786 81.8777 15.8248 82.7085 15.8248C83.5392 15.8248 84.1968 15.4786 84.7333 14.7864C85.2525 14.0768 85.5121 13.1595 85.5121 12Z" fill="black"/>
<path d="M102.196 12.4326L102.179 12.8307H93.5771C93.629 14.0248 93.8713 14.8555 94.3213 15.3228C94.7713 15.7901 95.4116 16.0324 96.2424 16.0324C97.6615 16.0324 98.5095 15.5997 98.7864 14.7517H102.057C101.694 15.9805 100.984 16.9323 99.9114 17.59C98.8557 18.2477 97.575 18.5765 96.1039 18.5765C94.2694 18.5765 92.8329 18.0054 91.7945 16.8804C90.7561 15.7555 90.2369 14.1633 90.2369 12.1211C90.2369 9.97507 90.7561 8.31363 91.8118 7.11947C92.8675 5.92531 94.3213 5.31958 96.1731 5.31958C98.0595 5.31958 99.5306 5.94262 100.586 7.20601C101.659 8.46939 102.196 10.2174 102.196 12.4326ZM98.7172 10.6327C98.6307 9.73278 98.3711 9.04051 97.9038 8.57323C97.4365 8.10595 96.8481 7.88097 96.1212 7.88097C94.6674 7.88097 93.8194 8.79822 93.6117 10.6327H98.7172Z" fill="black"/>
<path d="M115.332 13.921C115.176 15.3055 114.587 16.4132 113.566 17.2785C112.545 18.1438 111.282 18.5765 109.741 18.5765C107.82 18.5765 106.349 18.0227 105.294 16.8978C104.255 15.7728 103.719 14.1633 103.719 12.0519C103.719 9.88856 104.238 8.22712 105.294 7.06758C106.349 5.90803 107.838 5.33691 109.776 5.33691C111.368 5.33691 112.666 5.78689 113.653 6.66953C114.639 7.55217 115.193 8.78094 115.297 10.3558H112.112C111.922 9.52512 111.645 8.91939 111.299 8.55595C110.936 8.19251 110.416 8.01945 109.741 8.01945C107.942 8.01945 107.042 9.36936 107.042 12.0519C107.042 13.2807 107.284 14.2325 107.751 14.9075C108.218 15.5825 108.893 15.9113 109.741 15.9113C110.382 15.9113 110.866 15.7555 111.23 15.444C111.593 15.1325 111.887 14.6306 112.112 13.9556H115.332V13.921Z" fill="black"/>
<path d="M123.293 18.3688C123.206 18.3688 122.929 18.3861 122.479 18.4207C122.029 18.4553 121.666 18.4726 121.372 18.4726C120.264 18.4726 119.451 18.2476 118.914 17.7976C118.377 17.3477 118.118 16.6208 118.118 15.617V8.01938H116.474V5.80413H118.118V2.36011H121.441V5.80413H123.293V8.01938H121.441V14.7171C121.441 15.2882 121.51 15.6689 121.648 15.842C121.787 16.0324 122.081 16.1189 122.531 16.1189C122.704 16.1189 122.964 16.1016 123.293 16.0497V18.3688Z" fill="black"/>
<path d="M137.328 12.0519C137.328 14.0941 136.757 15.6863 135.632 16.8458C134.507 18.0054 132.95 18.5765 130.994 18.5765C129.021 18.5765 127.463 18.0054 126.339 16.8458C125.214 15.6863 124.66 14.0594 124.66 11.948C124.66 9.85393 125.214 8.2271 126.339 7.06755C127.463 5.90801 129.004 5.31958 130.977 5.31958C133.002 5.31958 134.576 5.90801 135.684 7.06755C136.774 8.24441 137.328 9.90585 137.328 12.0519ZM134.005 11.9999C134.005 10.7539 133.728 9.76739 133.192 9.05782C132.638 8.34825 131.911 8.00211 130.994 8.00211C130.077 8.00211 129.35 8.34825 128.796 9.05782C128.242 9.76739 127.983 10.7193 127.983 11.948C127.983 13.1595 128.26 14.1287 128.796 14.8382C129.35 15.5478 130.077 15.8939 130.994 15.8939C131.894 15.8939 132.621 15.5478 133.175 14.8382C133.728 14.146 134.005 13.1941 134.005 11.9999Z" fill="black"/>
<path d="M147.107 8.72899C146.708 8.65976 146.362 8.64246 146.068 8.64246C144.112 8.64246 143.143 9.61163 143.143 11.5673V18.3861H139.82V5.54457H143.143V8.05403C143.489 7.1887 143.974 6.51374 144.614 6.02915C145.255 5.56187 145.947 5.31958 146.708 5.31958C146.847 5.31958 146.985 5.31958 147.107 5.33689V8.72899Z" fill="black"/>
<path d="M0 32.5603H31.8442V0.716064H0V32.5603ZM24.7658 25.4819H7.07842V7.79449H24.7658V25.4819Z" fill="#1F00E0"/>
<path d="M21.2353 11.3423H10.6263V21.9513H21.2353V11.3423Z" fill="#1F00E0"/>
<path d="M7.07837 25.4818H24.7658V7.79443H7.07837V25.4818ZM21.2352 21.9513H10.6262V11.3423H21.2352V21.9513Z" fill="white"/>
<path d="M44.0973 32.5603H42.4705V26.278H44.0973V32.5603ZM44.0973 25.5338H42.4705V23.907H44.0973V25.5338Z" fill="black"/>
<path d="M50.968 30.7084C50.968 31.3488 50.7257 31.8333 50.2585 32.1622C49.7912 32.491 49.1162 32.6641 48.2163 32.6641C46.2779 32.6641 45.2914 31.9718 45.2568 30.57H46.849C46.9183 30.8815 47.0567 31.1065 47.2471 31.2103C47.4375 31.3315 47.7317 31.3834 48.1297 31.3834C48.9432 31.3834 49.3412 31.2103 49.3412 30.8469C49.3412 30.6738 49.1508 30.5353 48.7874 30.4142L46.849 29.8085C46.2952 29.6354 45.9318 29.445 45.7587 29.22C45.5684 28.9951 45.4818 28.6835 45.4818 28.2682C45.4818 27.6278 45.7068 27.1086 46.1741 26.7452C46.6414 26.3644 47.2644 26.1741 48.0605 26.1741C48.9085 26.1741 49.5662 26.3644 50.0508 26.7452C50.5354 27.1259 50.7777 27.6451 50.795 28.3028H49.2201C49.2201 27.7317 48.822 27.4548 48.0432 27.4548C47.749 27.4548 47.524 27.5067 47.3509 27.6105C47.1779 27.7144 47.0913 27.8528 47.0913 28.0432C47.0913 28.1816 47.126 28.2682 47.2125 28.3374C47.2817 28.4066 47.4375 28.4585 47.6625 28.5278L49.722 29.1162C50.5354 29.3585 50.9507 29.8604 50.9507 30.6219V30.7084H50.968Z" fill="black"/>
<path d="M58.0119 29.4797C58.0119 30.4835 57.735 31.2623 57.1812 31.8334C56.6274 32.4045 55.8659 32.6814 54.914 32.6814C53.9449 32.6814 53.1834 32.4045 52.6296 31.8334C52.0757 31.2623 51.7988 30.4662 51.7988 29.4451C51.7988 28.424 52.0757 27.6279 52.6296 27.0568C53.1834 26.4856 53.9275 26.2087 54.8967 26.2087C55.8832 26.2087 56.662 26.4856 57.1985 27.0568C57.735 27.6106 58.0119 28.424 58.0119 29.4797ZM56.3678 29.4451C56.3678 28.8394 56.2293 28.3548 55.9697 28.0086C55.7101 27.6625 55.3467 27.4894 54.8967 27.4894C54.4467 27.4894 54.0833 27.6625 53.8237 28.0086C53.5641 28.3548 53.4257 28.822 53.4257 29.4278C53.4257 30.0162 53.5641 30.5008 53.8237 30.8469C54.0833 31.1931 54.4467 31.3661 54.8967 31.3661C55.3467 31.3661 55.6928 31.1931 55.9697 30.8469C56.2466 30.5008 56.3678 30.0335 56.3678 29.4451Z" fill="black"/>
<path d="M64.7788 32.5601H63.152V31.7294C62.6847 32.3525 62.0617 32.664 61.2656 32.664C60.5906 32.664 60.0887 32.4736 59.708 32.0929C59.3446 31.7121 59.1542 31.1756 59.1542 30.4833V26.2778H60.781V30.1545C60.781 30.8987 61.1271 31.2795 61.8194 31.2795C62.2175 31.2795 62.529 31.1756 62.7713 30.9506C63.0136 30.7256 63.1347 30.4314 63.1347 30.0507V26.2778H64.7615V32.5601H64.7788Z" fill="black"/>
<path d="M69.9016 27.8528C69.7112 27.8182 69.5381 27.8009 69.3824 27.8009C68.4305 27.8009 67.9459 28.2855 67.9459 29.2374V32.5776H66.3191V26.2952H67.9459V27.524C68.119 27.0914 68.3613 26.7625 68.6728 26.5375C68.9843 26.3126 69.3304 26.1914 69.6939 26.1914C69.7631 26.1914 69.8323 26.1914 69.8843 26.2087V27.8528H69.9016Z" fill="black"/>
<path d="M76.1839 30.3969C76.1147 31.0719 75.8205 31.6257 75.3186 32.0411C74.8167 32.4564 74.1936 32.6814 73.4495 32.6814C72.5149 32.6814 71.788 32.4045 71.2688 31.8507C70.7496 31.2969 70.5073 30.5181 70.5073 29.4797C70.5073 28.424 70.7669 27.6106 71.2861 27.0394C71.8053 26.4683 72.5322 26.1914 73.4841 26.1914C74.2629 26.1914 74.9032 26.4164 75.3878 26.8491C75.8724 27.2817 76.1493 27.8875 76.2012 28.649H74.6436C74.5571 28.2336 74.4186 27.9394 74.2456 27.7663C74.0725 27.5932 73.8129 27.5067 73.4841 27.5067C72.6014 27.5067 72.1515 28.1644 72.1515 29.4797C72.1515 30.0854 72.2726 30.5527 72.4976 30.8815C72.7226 31.2103 73.0514 31.3661 73.4668 31.3661C73.7783 31.3661 74.0206 31.2969 74.1936 31.1411C74.3667 30.9854 74.5225 30.7431 74.6263 30.4142H76.1839V30.3969Z" fill="black"/>
<path d="M82.6912 29.67L82.6739 29.8604H78.4684C78.4857 30.4488 78.6069 30.8469 78.8318 31.0892C79.0568 31.3142 79.3683 31.4353 79.7664 31.4353C80.4587 31.4353 80.874 31.2276 81.0125 30.8123H82.622C82.4489 31.418 82.1028 31.8853 81.5836 32.1968C81.0644 32.5256 80.4414 32.6814 79.7318 32.6814C78.8318 32.6814 78.1223 32.4045 77.6204 31.8507C77.1185 31.2969 76.8589 30.5181 76.8589 29.5143C76.8589 28.4759 77.1185 27.6452 77.6377 27.074C78.1569 26.4856 78.8665 26.1914 79.7664 26.1914C80.6837 26.1914 81.4105 26.5029 81.9297 27.1087C82.4316 27.7317 82.6912 28.5797 82.6912 29.67ZM80.9952 28.7701C80.9606 28.3201 80.8221 27.9913 80.5971 27.7663C80.3721 27.5413 80.0779 27.4202 79.7318 27.4202C79.0222 27.4202 78.6069 27.8702 78.503 28.7701H80.9952Z" fill="black"/>
<path d="M152.437 5.99454C150.966 5.99454 149.789 4.80038 149.789 3.34662C149.789 1.87556 150.983 0.681396 152.437 0.681396C153.891 0.681396 155.102 1.87556 155.102 3.34662C155.102 4.81769 153.908 5.99454 152.437 5.99454ZM152.437 1.13137C151.226 1.13137 150.239 2.11785 150.239 3.34662C150.239 4.55809 151.226 5.54457 152.437 5.54457C153.648 5.54457 154.652 4.55809 154.652 3.34662C154.652 2.13516 153.648 1.13137 152.437 1.13137ZM152.991 4.83499C152.887 4.67923 152.87 4.5927 152.87 4.28118C152.87 4.21195 152.887 4.03889 152.887 3.98697C152.887 3.77929 152.783 3.71006 152.541 3.71006H151.866V4.83499H151.104V1.87556H152.835C153.423 1.87556 153.735 2.239 153.735 2.70627C153.735 3.0351 153.597 3.26009 153.302 3.41585C153.597 3.53699 153.614 3.67545 153.631 4.47155C153.631 4.55809 153.683 4.61001 153.77 4.64462V4.8523H152.991V4.83499ZM152.575 2.48129H151.866V3.10433H152.575C152.887 3.10433 152.973 3.00049 152.973 2.7755C152.973 2.56782 152.887 2.48129 152.575 2.48129Z" fill="black"/>
</svg>
