<svg width="146" height="46" viewBox="0 0 146 46" fill="none" xmlns="http://www.w3.org/2000/svg">
  <g clip-path="url(#clip0)">
    <path d="M64.3006 46H61.9043V36.7672H64.3006V46ZM64.3006 35.6735H61.9043V33.2827H64.3006V35.6735Z" fill="black"/>
    <path d="M75.1861 43.0241C75.1861 43.9652 74.8292 44.6774 74.1409 45.1607C73.4526 45.6439 72.4584 45.8983 71.1327 45.8983C68.2775 45.8983 66.8244 44.8809 66.7734 42.8207H69.1188C69.2208 43.2785 69.4247 43.6091 69.7051 43.7617C69.9855 43.9398 70.4189 44.0161 71.0053 44.0161C72.2034 44.0161 72.7898 43.7617 72.7898 43.2276C72.7898 42.9733 72.5093 42.7698 71.974 42.5917L69.1188 41.7015C68.303 41.4472 67.7677 41.1674 67.5127 40.8368C67.2323 40.5061 67.1048 40.0483 67.1048 39.4379C67.1048 38.4968 67.4363 37.7337 68.1246 37.1996C68.8129 36.64 69.7306 36.3603 70.9033 36.3603C72.1525 36.3603 73.1212 36.64 73.835 37.1996C74.5488 37.7592 74.9057 38.5222 74.9312 39.4887H72.6113C72.6113 38.6494 72.025 38.2424 70.8778 38.2424C70.4444 38.2424 70.113 38.3187 69.8581 38.4713C69.6032 38.6239 69.4757 38.8274 69.4757 39.1072C69.4757 39.3107 69.5267 39.4378 69.6541 39.5396C69.7561 39.6413 69.9855 39.7176 70.317 39.8194L73.3506 40.6841C74.5488 41.0402 75.1606 41.7778 75.1606 42.897V43.0241H75.1861Z" fill="black"/>
    <path d="M85.5621 41.2183C85.5621 42.6935 85.1542 43.8381 84.3385 44.6774C83.5227 45.5167 82.401 45.9237 80.9989 45.9237C79.5713 45.9237 78.4496 45.5167 77.6338 44.6774C76.818 43.8381 76.4102 42.6681 76.4102 41.1674C76.4102 39.6668 76.818 38.4968 77.6338 37.6574C78.4496 36.8181 79.5458 36.4111 80.9734 36.4111C82.4265 36.4111 83.5737 36.8181 84.364 37.6574C85.1542 38.4713 85.5621 39.6668 85.5621 41.2183ZM83.1658 41.1674C83.1658 40.2772 82.9618 39.565 82.5795 39.0563C82.1971 38.5476 81.6617 38.2933 80.9989 38.2933C80.3361 38.2933 79.8007 38.5476 79.4183 39.0563C79.0359 39.565 78.832 40.2518 78.832 41.142C78.832 42.0068 79.0359 42.7189 79.4183 43.2276C79.8007 43.7363 80.3361 43.9907 80.9989 43.9907C81.6617 43.9907 82.1716 43.7363 82.5795 43.2276C82.9618 42.7189 83.1658 42.0322 83.1658 41.1674Z" fill="black"/>
    <path d="M95.5294 45.7457H93.133V44.5248C92.4447 45.4405 91.527 45.8983 90.3543 45.8983C89.3601 45.8983 88.6208 45.6185 88.0599 45.0589C87.5246 44.4994 87.2441 43.7109 87.2441 42.6935V36.5129H89.6405V42.2103C89.6405 43.3039 90.1503 43.8635 91.1701 43.8635C91.7564 43.8635 92.2153 43.7109 92.5722 43.3803C92.9291 43.0496 93.1075 42.6172 93.1075 42.0576V36.5129H95.5039V45.7457H95.5294Z" fill="black"/>
    <path d="M103.076 38.8274C102.795 38.7765 102.541 38.7511 102.311 38.7511C100.909 38.7511 100.195 39.4632 100.195 40.8621V45.771H97.7988V36.5382H100.195V38.3441C100.45 37.7082 100.807 37.225 101.266 36.8943C101.725 36.5637 102.235 36.3856 102.77 36.3856C102.872 36.3856 102.974 36.3856 103.05 36.4111L103.076 38.8274Z" fill="black"/>
    <path d="M112.328 42.5663C112.226 43.5582 111.793 44.3721 111.054 44.9826C110.314 45.593 109.397 45.9236 108.301 45.9236C106.924 45.9236 105.853 45.5167 105.088 44.7028C104.324 43.8889 103.967 42.7443 103.967 41.2182C103.967 39.6667 104.349 38.4713 105.114 37.6319C105.879 36.7926 106.949 36.3856 108.352 36.3856C109.499 36.3856 110.442 36.7163 111.156 37.3522C111.87 37.988 112.277 38.8782 112.354 39.9974H110.06C109.932 39.3869 109.728 38.9545 109.473 38.7002C109.218 38.4458 108.836 38.3187 108.352 38.3187C107.051 38.3187 106.389 39.2852 106.389 41.2182C106.389 42.1084 106.567 42.7952 106.898 43.2784C107.23 43.7617 107.714 43.9906 108.326 43.9906C108.785 43.9906 109.142 43.8889 109.397 43.66C109.652 43.431 109.881 43.075 110.034 42.5917L112.328 42.5663Z" fill="black"/>
    <path d="M121.915 41.498L121.89 41.7778H115.695C115.721 42.6426 115.899 43.2276 116.23 43.5837C116.562 43.9143 117.021 44.0923 117.607 44.0923C118.627 44.0923 119.239 43.7871 119.443 43.1767H121.813C121.558 44.0669 121.049 44.7536 120.284 45.2115C119.519 45.6947 118.601 45.9236 117.556 45.9236C116.23 45.9236 115.185 45.5167 114.446 44.7028C113.707 43.8889 113.324 42.7443 113.324 41.2691C113.324 39.743 113.707 38.5221 114.471 37.6828C115.236 36.818 116.281 36.3856 117.607 36.3856C118.958 36.3856 120.029 36.8435 120.794 37.7337C121.533 38.6493 121.915 39.8956 121.915 41.498ZM119.417 40.1754C119.366 39.5141 119.162 39.0308 118.831 38.7002C118.499 38.3695 118.066 38.1915 117.556 38.1915C116.511 38.1915 115.899 38.8528 115.746 40.1754H119.417Z" fill="black"/>
    <path d="M72.6622 11.2676C72.0759 11.1659 71.566 11.1404 71.1326 11.1404C68.2519 11.1404 66.8243 12.5648 66.8243 15.4389V25.4602H61.9297V6.58762H66.8243V10.2757C67.3342 9.00392 68.048 8.01197 68.9912 7.2998C69.9345 6.61306 70.9542 6.25697 72.0759 6.25697C72.2798 6.25697 72.4838 6.25697 72.6622 6.28241V11.2676Z" fill="black"/>
    <path d="M91.8333 25.4347H86.5053C86.1229 24.9769 85.9445 24.1884 85.9445 23.0693C84.2109 24.8497 82.299 25.7654 80.2086 25.7654C78.5515 25.7654 77.1749 25.3076 76.1042 24.3665C75.008 23.4254 74.4727 22.1028 74.4727 20.3478C74.4727 18.6691 74.9315 17.3974 75.8238 16.5072C76.716 15.6169 78.1181 15.0065 80.0301 14.6504L81.9931 14.2943C82.2735 14.2435 82.6559 14.1926 83.1147 14.1163C83.5736 14.04 83.905 13.9891 84.109 13.9637C84.3129 13.9383 84.5423 13.862 84.8483 13.7602C85.1287 13.6585 85.3326 13.5567 85.4601 13.4296C85.5876 13.3024 85.6895 13.1243 85.766 12.8954C85.868 12.6665 85.8935 12.4122 85.8935 12.0815C85.8935 10.8352 84.9502 10.1994 83.0638 10.1994C81.8401 10.1994 80.9988 10.3774 80.5145 10.7589C80.0301 11.1404 79.7242 11.8017 79.5967 12.7937H74.8805C75.1865 8.44436 77.8887 6.25697 82.9618 6.25697C88.1114 6.25697 90.6861 8.19001 90.6861 12.0561V22.5352C90.6861 23.4 91.0685 24.163 91.8078 24.8497V25.4347H91.8333ZM85.919 17.3719V16.5326C85.4856 16.7361 84.7973 16.9396 83.854 17.1176L82.1715 17.4228C81.1263 17.6009 80.387 17.8806 79.9791 18.2113C79.5712 18.5419 79.3673 19.0761 79.3673 19.7628C79.3673 21.1108 80.2595 21.7976 82.0185 21.7976C83.2422 21.7976 84.2109 21.4161 84.8993 20.653C85.5876 19.89 85.919 18.7963 85.919 17.3719Z" fill="black"/>
    <path d="M112.024 25.4347H107.129V23.2728C105.88 24.926 104.121 25.7399 101.903 25.7399C99.4811 25.7399 97.5436 24.8243 96.116 22.9675C94.6884 21.1108 93.9746 18.7963 93.9746 16.0493C93.9746 13.2006 94.7394 10.8606 96.2435 9.02932C97.7476 7.19802 99.6595 6.28237 101.903 6.28237C104.197 6.28237 105.931 7.19802 107.129 9.02932V0H112.024V25.4347ZM107.129 16.1256C107.129 14.3452 106.747 12.9208 106.007 11.9034C105.268 10.8861 104.248 10.3774 102.999 10.3774C101.75 10.3774 100.756 10.8861 100.016 11.9289C99.2516 12.9717 98.8693 14.3452 98.8693 16.0747C98.8693 17.8043 99.2516 19.1523 100.016 20.1697C100.781 21.1871 101.775 21.6958 102.999 21.6958C104.223 21.6958 105.242 21.1871 105.982 20.1952C106.747 19.1778 107.129 17.8043 107.129 16.1256Z" fill="black"/>
    <path d="M132.673 25.4347H127.345C126.963 24.9769 126.784 24.1884 126.784 23.0693C125.051 24.8497 123.139 25.7654 121.048 25.7654C119.391 25.7654 118.015 25.3076 116.944 24.3665C115.848 23.4254 115.312 22.1028 115.312 20.3478C115.312 18.6691 115.771 17.3974 116.664 16.5072C117.556 15.6169 118.958 15.0065 120.87 14.6504L122.833 14.2943C123.113 14.2435 123.496 14.1926 123.955 14.1163C124.413 14.04 124.745 13.9891 124.949 13.9637C125.153 13.9383 125.382 13.862 125.688 13.7602C125.969 13.6585 126.172 13.5567 126.3 13.4296C126.427 13.3024 126.529 13.1243 126.606 12.8954C126.708 12.6665 126.733 12.4122 126.733 12.0815C126.733 10.8352 125.79 10.1994 123.904 10.1994C122.68 10.1994 121.839 10.3774 121.354 10.7589C120.87 11.1404 120.564 11.8017 120.437 12.7937H115.72C116.026 8.44436 118.729 6.25697 123.802 6.25697C128.951 6.25697 131.526 8.19001 131.526 12.0561V22.5352C131.526 23.4 131.908 24.163 132.648 24.8497V25.4347H132.673ZM126.759 17.3719V16.5326C126.325 16.7361 125.637 16.9396 124.694 17.1176L123.011 17.4228C121.966 17.6009 121.227 17.8806 120.819 18.2113C120.411 18.5419 120.207 19.0761 120.207 19.7628C120.207 21.1108 121.099 21.7976 122.858 21.7976C124.082 21.7976 125.051 21.4161 125.739 20.653C126.402 19.89 126.759 18.7963 126.759 17.3719Z" fill="black"/>
    <path d="M146.719 11.2676C146.132 11.1659 145.623 11.1404 145.189 11.1404C142.309 11.1404 140.881 12.5648 140.881 15.4389V25.4602H135.986V6.58762H140.881V10.2757C141.391 9.00392 142.105 8.01197 143.048 7.2998C143.991 6.61306 145.011 6.25697 146.132 6.25697C146.336 6.25697 146.54 6.25697 146.719 6.28241V11.2676Z" fill="black"/>
    <path d="M0 46H46.1053V3.05176e-05H0V46ZM35.8819 35.775H10.2484V10.225H35.8569V35.775H35.8819Z" fill="#1F00E0"/>
    <path d="M30.9518 15.3275H15.4883V30.7557H30.9518V15.3275Z" fill="#1F00E0"/>
    <path d="M10.3184 35.8901H36.0993V10.168H10.3184V35.8901ZM30.9532 30.7557H15.4897V15.3276H30.9532V30.7557Z" fill="white"/>
  </g>
  <defs>
    <clipPath id="clip0">
      <rect width="146" height="46" fill="white"/>
    </clipPath>
  </defs>
</svg>
